<svg
  xmlns="http://www.w3.org/2000/svg"
  viewBox="0 0 64 64"
  width="200px"
  height="200px"
>
  <defs>
    <linearGradient id="blueGradient" x1="0%" y1="0%" x2="100%" y2="100%">
      <stop offset="0%" style="stop-color:#00aaff; stop-opacity:1" />
      <stop offset="100%" style="stop-color:#0044cc; stop-opacity:1" />
    </linearGradient>
  </defs>
  <rect width="64" height="64" rx="8" fill="#A120DE" />
  <path
    d="M16 12h32a2 2 0 012 2v36a2 2 0 01-2 2H16a2 2 0 01-2-2V14a2 2 0 012-2zm2 4v32h28V16H18zm4 4h20v4H22v-4zm0 8h20v4H22v-4zm0 8h20v4H22v-4zm0 8h20v4H22v-4z"
    fill="#ffffff"
  />
  <circle cx="32" cy="20" r="4" fill="#00aaff" />
  <path
    d="M32 28c-4 0-8 2-10 5 1-3 4-5 8-5 3 0 6 1 7 4-1-1-2-2-5-4zm10 4c-2 0-5 1-7 4-1 1-1 2-1 2h-2s0-2 2-4c2-2 5-2 7-2zm-4-4a6 6 0 10-6-6 6 6 0 006 6zm-8-2h2a2 2 0 11-2 2v-2zm0-4h2a2 2 0 11-2 2v-2z"
    fill="#ffffff"
  />
</svg>
